<svg width="34" height="36" viewBox="0 0 34 36" fill="none" xmlns="http://www.w3.org/2000/svg">
<path d="M33.6161 15.651C33.4522 15.26 33.0322 15 32.5629 15H19.0043L26.825 1.458C27.0709 1.032 26.9441 0.511 26.5207 0.215C26.3164 0.071 26.0705 0 25.8257 0C25.5641 0 25.3024 0.082 25.0925 0.243L16.8428 6.588L0.38945 19.243C0.0346252 19.516 -0.0933812 19.957 0.070557 20.348C0.234495 20.739 0.653323 21 1.12268 21H14.6813L6.86051 34.542C6.61461 34.968 6.74149 35.489 7.16481 35.785C7.36917 35.929 7.61508 36 7.85986 36C8.12149 36 8.38312 35.918 8.59309 35.757L16.8428 29.412L33.2961 16.757C33.652 16.484 33.7789 16.043 33.6161 15.651V15.651Z" fill="#FFAC33"/>
</svg>
