<svg width="25" height="25" viewBox="0 0 25 25" fill="none" xmlns="http://www.w3.org/2000/svg">
<path d="M0.0192871 12.1429L5.72933 7.14285L17.1494 7.85714L17.8632 19.2857L12.8669 25C12.8669 25 12.8676 20.715 8.58435 16.4286C4.3011 12.1421 0.0192871 12.1429 0.0192871 12.1429Z" fill="#A0041E"/>
<path d="M1.39237e-05 25C1.39237e-05 25 -0.0256812 19.3007 2.13057 17.1429C4.28683 14.985 10.0119 15.1336 10.0119 15.1336C10.0119 15.1336 10.0111 20.7143 7.86988 22.8572C5.72861 25 1.39237e-05 25 1.39237e-05 25V25Z" fill="#FFAC33"/>
<path d="M5.7288 22.1428C7.30558 22.1428 8.58382 20.8637 8.58382 19.2857C8.58382 17.7077 7.30558 16.4286 5.7288 16.4286C4.15201 16.4286 2.87378 17.7077 2.87378 19.2857C2.87378 20.8637 4.15201 22.1428 5.7288 22.1428Z" fill="#FFCC4D"/>
<path d="M25 0C25 0 17.8625 0 9.2974 7.14286C5.01487 10.7143 5.01487 17.1429 6.44238 18.5714C7.86989 20 14.2937 20 17.8625 15.7143C25 7.14286 25 0 25 0Z" fill="#55ACEE"/>
<path d="M18.5761 3.57144C17.4177 3.57144 16.4255 4.26501 15.9773 5.25716C16.3356 5.09501 16.7303 5.00001 17.1486 5.00001C18.7253 5.00001 20.0036 6.2793 20.0036 7.85716C20.0036 8.27573 19.9087 8.67073 19.7473 9.02858C20.7388 8.58073 21.4311 7.58787 21.4311 6.42858C21.4311 4.85073 20.1528 3.57144 18.5761 3.57144V3.57144Z" fill="black"/>
<path d="M5.01562 20C5.01562 20 5.01562 17.1428 5.72938 16.4286C6.44314 15.7143 15.0089 8.57213 15.722 9.2857C16.435 9.99927 9.29744 18.5714 8.58369 19.2857C7.86993 20 5.01562 20 5.01562 20Z" fill="#A0041E"/>
</svg>
