<svg width="34" height="37" viewBox="0 0 34 37" fill="none" xmlns="http://www.w3.org/2000/svg">
<path d="M33.6161 16.151C33.4522 15.76 33.0322 15.5 32.5629 15.5H19.0043L26.825 1.958C27.0709 1.532 26.9441 1.011 26.5207 0.715C26.3164 0.571 26.0705 0.5 25.8257 0.5C25.5641 0.5 25.3024 0.582 25.0925 0.743L16.8428 7.088L0.38945 19.743C0.0346252 20.016 -0.0933812 20.457 0.070557 20.848C0.234495 21.239 0.653323 21.5 1.12268 21.5H14.6813L6.86051 35.042C6.61461 35.468 6.74149 35.989 7.16481 36.285C7.36917 36.429 7.61508 36.5 7.85986 36.5C8.12149 36.5 8.38312 36.418 8.59309 36.257L16.8428 29.912L33.2961 17.257C33.652 16.984 33.7789 16.543 33.6161 16.151V16.151Z" fill="#FFAC33"/>
</svg>
